<?xml version="1.0" encoding="UTF-8"?>
<svg id="Layer_1" data-name="Layer 1" xmlns="http://www.w3.org/2000/svg" width="304.04" height="197.64" xmlns:xlink="http://www.w3.org/1999/xlink" viewBox="0 0 304.04 197.64">
  <defs>
    <style>
      .cls-1 {
        fill: #fff;
      }

      .cls-2 {
        fill: none;
      }

      .cls-3 {
        clip-path: url(#clippath-1);
      }

      .cls-4 {
        fill: url(#linear-gradient);
      }

      .cls-5 {
        clip-path: url(#clippath);
      }
    </style>
    <clipPath id="clippath">
      <rect class="cls-2" x="51.65" y="0" width="200" height="138"/>
    </clipPath>
    <clipPath id="clippath-1">
      <path class="cls-2" d="M234.62,58.45l16.99,23.23v10.85l-16.99-18.7-47.18,18.7v-10.85l47.18-23.23ZM187.44,96.57v10.85l47.18-12.46,16.99,12.46v-10.85l-16.99-17.01-47.18,17.01ZM187.44,111.45v10.85l47.18-6.23,16.99,6.23v-10.85l-16.99-10.78-47.18,10.78ZM187.44,126.33v10.85h64.18v-10.85l-16.99-4.55-47.18,4.55ZM234.62,37.33l-47.18,29.47v10.85l47.18-24.92,16.99,24.92v-10.85l-16.99-29.47ZM51.69,90.33v9.16l18.41-15.79,36.06,15.79v-9.16l-36.06-19.62-18.41,19.62ZM51.69,102.89v9.16l18.41-10.52,36.06,10.52v-9.16l-36.06-14.35-18.41,14.35ZM51.69,115.46v9.16l18.41-5.26,36.06,5.26v-9.16l-36.06-9.09-18.41,9.09ZM70.2,124.25h-.04s-.07,0-.07,0v.02l-18.4,3.82v9.16h54.46v-9.16l-35.94-3.82v-.02h-.01ZM148.83,137.7h8.29V5.52L148.83,0v137.7ZM162.32,137.81h8.28V14.51l-8.28-5.52v128.82ZM175.8,137.81h8.29V23.5l-8.29-5.52v119.83ZM135.76,137.7h8.29V0l-8.29,5.52v132.18ZM122.28,137.81h8.29V8.99l-8.29,5.52v123.3ZM108.79,137.81h8.28V17.97l-8.28,5.52v114.32Z"/>
    </clipPath>
    <linearGradient id="linear-gradient" x1="299.13" y1="260.65" x2="281.47" y2="52.17" gradientTransform="translate(-62.3 184.18) scale(.74 -.74)" gradientUnits="userSpaceOnUse">
      <stop offset="0" stop-color="#ff914d"/>
      <stop offset=".11" stop-color="#ff914d"/>
      <stop offset=".12" stop-color="#ff914d"/>
      <stop offset=".19" stop-color="#ff914d"/>
      <stop offset=".2" stop-color="#ff914d"/>
      <stop offset=".21" stop-color="#ff924f"/>
      <stop offset=".21" stop-color="#ff9350"/>
      <stop offset=".21" stop-color="#ff9350"/>
      <stop offset=".22" stop-color="#ff9451"/>
      <stop offset=".22" stop-color="#ff9452"/>
      <stop offset=".23" stop-color="#ff9553"/>
      <stop offset=".23" stop-color="#ff9554"/>
      <stop offset=".23" stop-color="#ff9655"/>
      <stop offset=".24" stop-color="#ff9656"/>
      <stop offset=".24" stop-color="#ff9757"/>
      <stop offset=".25" stop-color="#ff9757"/>
      <stop offset=".25" stop-color="#ff9858"/>
      <stop offset=".25" stop-color="#ff9859"/>
      <stop offset=".26" stop-color="#ff995a"/>
      <stop offset=".26" stop-color="#ff9a5b"/>
      <stop offset=".27" stop-color="#ff9a5c"/>
      <stop offset=".27" stop-color="#ff9b5d"/>
      <stop offset=".27" stop-color="#ff9b5d"/>
      <stop offset=".28" stop-color="#ff9c5e"/>
      <stop offset=".28" stop-color="#ff9c5f"/>
      <stop offset=".29" stop-color="#ff9d60"/>
      <stop offset=".29" stop-color="#ff9d61"/>
      <stop offset=".29" stop-color="#ff9e62"/>
      <stop offset=".3" stop-color="#ff9e63"/>
      <stop offset=".3" stop-color="#ff9f64"/>
      <stop offset=".3" stop-color="#ff9f64"/>
      <stop offset=".31" stop-color="#ffa065"/>
      <stop offset=".31" stop-color="#ffa166"/>
      <stop offset=".32" stop-color="#ffa167"/>
      <stop offset=".32" stop-color="#ffa268"/>
      <stop offset=".32" stop-color="#ffa269"/>
      <stop offset=".33" stop-color="#ffa36a"/>
      <stop offset=".33" stop-color="#ffa36b"/>
      <stop offset=".34" stop-color="#ffa46b"/>
      <stop offset=".34" stop-color="#ffa46c"/>
      <stop offset=".34" stop-color="#ffa56d"/>
      <stop offset=".35" stop-color="#ffa56e"/>
      <stop offset=".35" stop-color="#ffa66f"/>
      <stop offset=".36" stop-color="#ffa670"/>
      <stop offset=".36" stop-color="#ffa771"/>
      <stop offset=".36" stop-color="#ffa872"/>
      <stop offset=".37" stop-color="#ffa872"/>
      <stop offset=".37" stop-color="#ffa973"/>
      <stop offset=".38" stop-color="#ffa974"/>
      <stop offset=".38" stop-color="#ffaa75"/>
      <stop offset=".38" stop-color="#ffaa76"/>
      <stop offset=".39" stop-color="#ffab77"/>
      <stop offset=".39" stop-color="#ffab78"/>
      <stop offset=".39" stop-color="#ffac79"/>
      <stop offset=".4" stop-color="#ffac79"/>
      <stop offset=".4" stop-color="#ffad7a"/>
      <stop offset=".41" stop-color="#ffad7b"/>
      <stop offset=".41" stop-color="#ffae7c"/>
      <stop offset=".41" stop-color="#ffaf7d"/>
      <stop offset=".42" stop-color="#ffaf7e"/>
      <stop offset=".42" stop-color="#ffb07f"/>
      <stop offset=".43" stop-color="#ffb07f"/>
      <stop offset=".43" stop-color="#ffb180"/>
      <stop offset=".43" stop-color="#ffb181"/>
      <stop offset=".44" stop-color="#ffb282"/>
      <stop offset=".44" stop-color="#ffb283"/>
      <stop offset=".45" stop-color="#ffb384"/>
      <stop offset=".45" stop-color="#ffb385"/>
      <stop offset=".45" stop-color="#ffb486"/>
      <stop offset=".46" stop-color="#ffb486"/>
      <stop offset=".46" stop-color="#ffb587"/>
      <stop offset=".46" stop-color="#ffb688"/>
      <stop offset=".47" stop-color="#ffb689"/>
      <stop offset=".47" stop-color="#ffb78a"/>
      <stop offset=".48" stop-color="#ffb78b"/>
      <stop offset=".48" stop-color="#ffb88c"/>
      <stop offset=".48" stop-color="#ffb88d"/>
      <stop offset=".49" stop-color="#ffb98d"/>
      <stop offset=".49" stop-color="#ffb98e"/>
      <stop offset=".5" stop-color="#ffba8f"/>
      <stop offset=".5" stop-color="#ffba90"/>
      <stop offset=".5" stop-color="#ffbb91"/>
      <stop offset=".51" stop-color="#ffbc92"/>
      <stop offset=".51" stop-color="#ffbc93"/>
      <stop offset=".52" stop-color="#ffbd94"/>
      <stop offset=".52" stop-color="#ffbd94"/>
      <stop offset=".52" stop-color="#ffbe95"/>
      <stop offset=".53" stop-color="#ffbe96"/>
      <stop offset=".53" stop-color="#ffbf97"/>
      <stop offset=".54" stop-color="#ffbf98"/>
      <stop offset=".54" stop-color="#ffc099"/>
      <stop offset=".54" stop-color="#ffc09a"/>
      <stop offset=".55" stop-color="#ffc19b"/>
      <stop offset=".55" stop-color="#ffc19b"/>
      <stop offset=".55" stop-color="#ffc29c"/>
      <stop offset=".56" stop-color="#ffc39d"/>
      <stop offset=".56" stop-color="#ffc39e"/>
      <stop offset=".57" stop-color="#ffc49f"/>
      <stop offset=".57" stop-color="#ffc4a0"/>
      <stop offset=".57" stop-color="#ffc5a1"/>
      <stop offset=".58" stop-color="#ffc5a1"/>
      <stop offset=".58" stop-color="#ffc6a2"/>
      <stop offset=".59" stop-color="#ffc6a3"/>
      <stop offset=".59" stop-color="#ffc7a4"/>
      <stop offset=".59" stop-color="#ffc7a5"/>
      <stop offset=".6" stop-color="#ffc8a6"/>
      <stop offset=".6" stop-color="#ffc8a7"/>
      <stop offset=".61" stop-color="#ffc9a8"/>
      <stop offset=".61" stop-color="#ffcaa8"/>
      <stop offset=".61" stop-color="#ffcaa9"/>
      <stop offset=".62" stop-color="#ffcbaa"/>
      <stop offset=".62" stop-color="#ffcbab"/>
      <stop offset=".62" stop-color="#ffccac"/>
      <stop offset=".63" stop-color="#ffccad"/>
      <stop offset=".63" stop-color="#ffcdae"/>
      <stop offset=".64" stop-color="#ffcdaf"/>
      <stop offset=".64" stop-color="#ffceaf"/>
      <stop offset=".64" stop-color="#ffceb0"/>
      <stop offset=".65" stop-color="#ffcfb1"/>
      <stop offset=".65" stop-color="#ffcfb2"/>
      <stop offset=".66" stop-color="#ffd0b3"/>
      <stop offset=".66" stop-color="#ffd1b4"/>
      <stop offset=".66" stop-color="#ffd1b5"/>
      <stop offset=".67" stop-color="#ffd2b6"/>
      <stop offset=".67" stop-color="#ffd2b6"/>
      <stop offset=".68" stop-color="#ffd3b7"/>
      <stop offset=".68" stop-color="#ffd3b8"/>
      <stop offset=".68" stop-color="#ffd4b9"/>
      <stop offset=".69" stop-color="#ffd4ba"/>
      <stop offset=".69" stop-color="#ffd5bb"/>
      <stop offset=".7" stop-color="#ffd5bc"/>
      <stop offset=".7" stop-color="#ffd6bd"/>
      <stop offset=".7" stop-color="#ffd6bd"/>
      <stop offset=".71" stop-color="#ffd7be"/>
      <stop offset=".71" stop-color="#ffd8bf"/>
      <stop offset=".71" stop-color="#ffd8c0"/>
      <stop offset=".72" stop-color="#ffd9c1"/>
      <stop offset=".72" stop-color="#ffd9c2"/>
      <stop offset=".73" stop-color="#ffdac3"/>
      <stop offset=".73" stop-color="#ffdac3"/>
      <stop offset=".73" stop-color="#ffdbc4"/>
      <stop offset=".74" stop-color="#ffdbc5"/>
      <stop offset=".74" stop-color="#ffdcc6"/>
      <stop offset=".75" stop-color="#ffdcc7"/>
      <stop offset=".75" stop-color="#ffddc8"/>
      <stop offset=".75" stop-color="#ffddc9"/>
      <stop offset=".76" stop-color="#ffdeca"/>
      <stop offset=".76" stop-color="#ffdfca"/>
      <stop offset=".77" stop-color="#ffdfcb"/>
      <stop offset=".77" stop-color="#ffe0cc"/>
      <stop offset=".77" stop-color="#ffe0cd"/>
      <stop offset=".78" stop-color="#ffe1ce"/>
      <stop offset=".78" stop-color="#ffe1cf"/>
      <stop offset=".79" stop-color="#ffe2d0"/>
      <stop offset=".79" stop-color="#ffe2d1"/>
      <stop offset=".79" stop-color="#ffe3d1"/>
      <stop offset=".8" stop-color="#ffe3d2"/>
      <stop offset=".8" stop-color="#ffe4d3"/>
      <stop offset=".8" stop-color="#ffe4d4"/>
      <stop offset=".81" stop-color="#ffe5d5"/>
      <stop offset=".81" stop-color="#ffe6d6"/>
      <stop offset=".82" stop-color="#ffe6d7"/>
      <stop offset=".82" stop-color="#ffe7d8"/>
      <stop offset=".82" stop-color="#ffe7d8"/>
      <stop offset=".83" stop-color="#ffe8d9"/>
      <stop offset=".83" stop-color="#ffe8da"/>
      <stop offset=".84" stop-color="#ffe9db"/>
      <stop offset=".84" stop-color="#ffe9dc"/>
      <stop offset=".84" stop-color="#ffeadd"/>
      <stop offset=".85" stop-color="#ffeade"/>
      <stop offset=".85" stop-color="#ffebde"/>
      <stop offset=".86" stop-color="#ffebdf"/>
      <stop offset=".86" stop-color="#ffece0"/>
      <stop offset=".86" stop-color="#ffede1"/>
      <stop offset=".87" stop-color="#ffede2"/>
      <stop offset=".87" stop-color="#ffeee3"/>
      <stop offset=".88" stop-color="#ffeee4"/>
      <stop offset=".88" stop-color="#ffefe5"/>
      <stop offset=".88" stop-color="#ffefe5"/>
      <stop offset=".89" stop-color="#fff0e6"/>
      <stop offset=".89" stop-color="#fff0e7"/>
      <stop offset=".89" stop-color="#fff1e8"/>
      <stop offset=".9" stop-color="#fff1e9"/>
      <stop offset=".9" stop-color="#fff2ea"/>
      <stop offset=".91" stop-color="#fff2eb"/>
      <stop offset=".91" stop-color="#fff3ec"/>
      <stop offset=".91" stop-color="#fff4ec"/>
      <stop offset=".92" stop-color="#fff4ed"/>
      <stop offset=".92" stop-color="#fff5ee"/>
      <stop offset=".93" stop-color="#fff5ef"/>
      <stop offset=".93" stop-color="#fff6f0"/>
      <stop offset=".93" stop-color="#fff6f1"/>
      <stop offset=".94" stop-color="#fff7f2"/>
      <stop offset=".94" stop-color="#fff7f3"/>
      <stop offset=".95" stop-color="#fff8f3"/>
      <stop offset=".95" stop-color="#fff8f4"/>
      <stop offset=".95" stop-color="#fff9f5"/>
      <stop offset=".96" stop-color="#fff9f6"/>
      <stop offset=".96" stop-color="#fffaf7"/>
      <stop offset=".96" stop-color="#fffbf8"/>
      <stop offset=".97" stop-color="#fffbf9"/>
      <stop offset=".97" stop-color="#fffcfa"/>
      <stop offset=".98" stop-color="#fffcfa"/>
      <stop offset=".98" stop-color="#fffdfb"/>
      <stop offset=".98" stop-color="#fffdfc"/>
      <stop offset=".99" stop-color="#fffefd"/>
      <stop offset=".99" stop-color="#fffefe"/>
      <stop offset="1" stop-color="#fffffe"/>
      <stop offset="1" stop-color="#fff"/>
    </linearGradient>
  </defs>
  <g class="cls-5">
    <g class="cls-3">
      <path class="cls-4" d="M51.69,0v137.81h199.93V0H51.69Z"/>
    </g>
  </g>
  <path class="cls-1" d="M6.19,159.45c2.08,0,3.67.52,4.75,1.56,1.08,1.03,1.63,2.39,1.63,4.08s-.55,3.04-1.65,4.06c-1.1,1.03-2.68,1.54-4.75,1.54h-2.33v4.04c0,.28-.06.47-.19.56-.13.1-.3.15-.52.15H.71c-.21,0-.39-.05-.52-.15-.13-.09-.19-.28-.19-.56v-14.58c0-.22.05-.4.15-.52.09-.13.28-.19.56-.19h5.48ZM6.17,167.43c.94,0,1.63-.22,2.06-.67.43-.46.65-.99.65-1.6s-.22-1.16-.65-1.6c-.43-.44-1.12-.67-2.06-.67h-2.33v4.54h2.33Z"/>
  <path class="cls-1" d="M28.37,174.68c.13.16.15.32.08.5-.07.18-.22.27-.44.27h-2.88c-.29,0-.52-.05-.69-.17-.17-.11-.34-.3-.52-.56l-2.63-3.92c-.11-.14-.19-.29-.23-.46-.03-.18-.04-.44-.04-.77v-1.96c0-.22.05-.4.15-.52.09-.13.28-.19.56-.19h.48c.59,0,1.13-.18,1.6-.54.47-.38.71-.84.71-1.42,0-.64-.22-1.14-.65-1.5-.43-.38-.96-.56-1.58-.56h-3.25v11.85c0,.28-.06.47-.19.56-.11.1-.28.15-.5.15h-2.42c-.21,0-.38-.05-.5-.15-.13-.09-.19-.28-.19-.56v-14.56c0-.22.04-.4.13-.52.09-.13.28-.19.56-.19h6.13c.89,0,1.63.06,2.21.19.58.11,1.08.29,1.5.52.42.22.79.51,1.13.85.46.43.8.98,1.04,1.65.25.67.38,1.39.38,2.17,0,.85-.18,1.6-.54,2.27-.35.67-.79,1.22-1.31,1.67-.52.43-1.02.73-1.52.9l3.42,5Z"/>
  <path class="cls-1" d="M44.04,170.33c0,.96-.21,1.79-.63,2.48-.41.7-.93,1.27-1.58,1.71-.64.45-1.34.77-2.1.98-.77.22-1.51.33-2.23.33s-1.48-.11-2.23-.33c-.75-.21-1.45-.53-2.1-.98-.66-.44-1.18-1.01-1.58-1.71-.39-.69-.58-1.52-.58-2.48v-5.75c0-.96.19-1.78.58-2.48.4-.69.93-1.26,1.58-1.71.65-.44,1.35-.77,2.1-.98s1.49-.31,2.23-.31,1.46.1,2.23.31c.76.21,1.46.54,2.1.98.65.45,1.18,1.02,1.58,1.71.42.7.63,1.52.63,2.48v5.75ZM40.21,164.93c0-.78-.25-1.38-.75-1.81-.5-.43-1.16-.65-1.96-.65s-1.45.22-1.96.65c-.5.43-.75,1.04-.75,1.81v5.04c0,.78.25,1.39.75,1.81.51.43,1.17.65,1.96.65s1.46-.21,1.96-.65c.5-.43.75-1.03.75-1.81v-5.04Z"/>
  <path class="cls-1" d="M53.33,159.45c2.08,0,3.67.52,4.75,1.56,1.08,1.03,1.63,2.39,1.63,4.08s-.55,3.04-1.65,4.06c-1.1,1.03-2.68,1.54-4.75,1.54h-2.33v4.04c0,.28-.06.47-.19.56-.13.1-.3.15-.52.15h-2.42c-.21,0-.39-.05-.52-.15-.13-.09-.19-.28-.19-.56v-14.58c0-.22.05-.4.15-.52.09-.13.28-.19.56-.19h5.48ZM53.31,167.43c.94,0,1.63-.22,2.06-.67.43-.46.65-.99.65-1.6s-.22-1.16-.65-1.6c-.43-.44-1.12-.67-2.06-.67h-2.33v4.54h2.33Z"/>
  <path class="cls-1" d="M74.01,172.06c.28,0,.46.06.56.19.09.11.15.28.15.5v2c0,.21-.05.39-.15.52-.1.13-.29.19-.56.19h-10.9c-.28,0-.47-.06-.56-.19-.1-.14-.15-.31-.15-.52v-14.58c0-.22.05-.4.15-.52.09-.13.28-.19.56-.19h10.48c.28,0,.46.06.56.19.09.13.15.3.15.52v2.02c0,.21-.05.39-.15.52-.1.13-.29.19-.56.19h-7.33v2.65h6.52c.26,0,.44.06.54.19.09.11.15.29.15.52v1.9c0,.21-.05.39-.15.52-.1.13-.28.19-.54.19h-6.52v3.21h7.75Z"/>
  <path class="cls-1" d="M90.76,174.68c.13.16.15.32.08.5-.07.18-.22.27-.44.27h-2.88c-.29,0-.52-.05-.69-.17-.17-.11-.34-.3-.52-.56l-2.63-3.92c-.11-.14-.19-.29-.23-.46-.03-.18-.04-.44-.04-.77v-1.96c0-.22.05-.4.15-.52.09-.13.28-.19.56-.19h.48c.59,0,1.13-.18,1.6-.54.47-.38.71-.84.71-1.42,0-.64-.22-1.14-.65-1.5-.43-.38-.96-.56-1.58-.56h-3.25v11.85c0,.28-.06.47-.19.56-.11.1-.28.15-.5.15h-2.42c-.21,0-.38-.05-.5-.15-.13-.09-.19-.28-.19-.56v-14.56c0-.22.04-.4.13-.52.09-.13.28-.19.56-.19h6.13c.89,0,1.63.06,2.21.19.58.11,1.08.29,1.5.52.42.22.79.51,1.13.85.46.43.8.98,1.04,1.65.25.67.38,1.39.38,2.17,0,.85-.18,1.6-.54,2.27-.35.67-.79,1.22-1.31,1.67-.52.43-1.02.73-1.52.9l3.42,5Z"/>
  <path class="cls-1" d="M104.68,159.45c.28,0,.46.06.56.19.09.13.15.3.15.52v2.02c0,.21-.05.39-.15.52-.1.13-.29.19-.56.19h-3.73v11.85c0,.28-.06.47-.19.56-.11.1-.29.15-.52.15h-2.4c-.21,0-.39-.05-.52-.15-.13-.09-.19-.28-.19-.56v-11.85h-3.75c-.28,0-.47-.06-.56-.19-.1-.14-.15-.31-.15-.52v-2.02c0-.22.05-.4.15-.52.09-.13.28-.19.56-.19h11.29Z"/>
  <path class="cls-1" d="M119.99,159.45c.22,0,.35.08.4.25.05.16.05.3,0,.44l-5.02,9.31v5.29c0,.28-.06.47-.19.56-.11.1-.29.15-.52.15h-2.42c-.24,0-.42-.05-.54-.15-.11-.09-.17-.28-.17-.56v-5.29l-5.21-9.31c-.06-.14-.06-.28-.02-.44.05-.17.19-.25.42-.25h2.79c.28,0,.49.04.65.13.17.08.33.29.5.6l2.83,5.23,2.75-5.23c.17-.32.32-.52.48-.6.15-.08.36-.13.65-.13h2.63Z"/>
  <path class="cls-1" d="M135.26,159.45c2.08,0,3.67.52,4.75,1.56,1.08,1.03,1.63,2.39,1.63,4.08s-.55,3.04-1.65,4.06c-1.1,1.03-2.68,1.54-4.75,1.54h-2.33v4.04c0,.28-.06.47-.19.56-.13.1-.3.15-.52.15h-2.42c-.21,0-.39-.05-.52-.15-.13-.09-.19-.28-.19-.56v-14.58c0-.22.05-.4.15-.52.09-.13.28-.19.56-.19h5.48ZM135.24,167.43c.94,0,1.63-.22,2.06-.67.43-.46.65-.99.65-1.6s-.22-1.16-.65-1.6c-.43-.44-1.12-.67-2.06-.67h-2.33v4.54h2.33Z"/>
  <path class="cls-1" d="M157.45,174.68c.13.16.15.32.08.5-.07.18-.22.27-.44.27h-2.88c-.29,0-.52-.05-.69-.17-.17-.11-.34-.3-.52-.56l-2.63-3.92c-.11-.14-.19-.29-.23-.46-.03-.18-.04-.44-.04-.77v-1.96c0-.22.05-.4.15-.52.09-.13.28-.19.56-.19h.48c.59,0,1.13-.18,1.6-.54.47-.38.71-.84.71-1.42,0-.64-.22-1.14-.65-1.5-.43-.38-.96-.56-1.58-.56h-3.25v11.85c0,.28-.06.47-.19.56-.11.1-.28.15-.5.15h-2.42c-.21,0-.38-.05-.5-.15-.13-.09-.19-.28-.19-.56v-14.56c0-.22.04-.4.13-.52.09-.13.28-.19.56-.19h6.13c.89,0,1.63.06,2.21.19.58.11,1.08.29,1.5.52.42.22.79.51,1.13.85.46.43.8.98,1.04,1.65.25.67.38,1.39.38,2.17,0,.85-.18,1.6-.54,2.27-.35.67-.79,1.22-1.31,1.67-.52.43-1.02.73-1.52.9l3.42,5Z"/>
  <path class="cls-1" d="M173.12,170.33c0,.96-.21,1.79-.63,2.48-.41.7-.93,1.27-1.58,1.71-.64.45-1.34.77-2.1.98-.77.22-1.51.33-2.23.33s-1.48-.11-2.23-.33c-.75-.21-1.45-.53-2.1-.98-.66-.44-1.18-1.01-1.58-1.71-.39-.69-.58-1.52-.58-2.48v-5.75c0-.96.19-1.78.58-2.48.4-.69.93-1.26,1.58-1.71.65-.44,1.35-.77,2.1-.98s1.49-.31,2.23-.31,1.46.1,2.23.31c.76.21,1.46.54,2.1.98.65.45,1.18,1.02,1.58,1.71.42.7.63,1.52.63,2.48v5.75ZM169.29,164.93c0-.78-.25-1.38-.75-1.81-.5-.43-1.16-.65-1.96-.65s-1.45.22-1.96.65c-.5.43-.75,1.04-.75,1.81v5.04c0,.78.25,1.39.75,1.81.51.43,1.17.65,1.96.65s1.46-.21,1.96-.65c.5-.43.75-1.03.75-1.81v-5.04Z"/>
  <path class="cls-1" d="M188.99,159.45c2.08,0,3.67.52,4.75,1.56,1.08,1.03,1.63,2.39,1.63,4.08s-.55,3.04-1.65,4.06c-1.1,1.03-2.68,1.54-4.75,1.54h-2.33v4.04c0,.28-.06.47-.19.56-.13.1-.3.15-.52.15h-2.42c-.21,0-.39-.05-.52-.15-.13-.09-.19-.28-.19-.56v-14.58c0-.22.05-.4.15-.52.09-.13.28-.19.56-.19h5.48ZM188.97,167.43c.94,0,1.63-.22,2.06-.67.43-.46.65-.99.65-1.6s-.22-1.16-.65-1.6c-.43-.44-1.12-.67-2.06-.67h-2.33v4.54h2.33Z"/>
  <path class="cls-1" d="M211.84,174.77c.07.16.08.31.04.46-.03.16-.18.23-.46.23h-2.54c-.27,0-.47-.05-.6-.15-.13-.09-.24-.29-.33-.58l-.69-1.92h-5.94l-.69,1.92c-.1.29-.21.49-.33.58-.13.1-.32.15-.58.15h-2.56c-.27,0-.42-.07-.46-.23-.03-.15-.02-.3.04-.46l5.4-14.56c.09-.25.22-.44.38-.56.15-.13.36-.19.63-.19h2.33c.28,0,.48.06.63.19.14.13.26.31.38.56l5.38,14.56ZM204.3,164.04l-1.81,5.35h3.65l-1.83-5.35Z"/>
  <path class="cls-1" d="M227.1,174.68c.13.16.15.32.08.5-.07.18-.22.27-.44.27h-2.88c-.29,0-.52-.05-.69-.17-.17-.11-.34-.3-.52-.56l-2.63-3.92c-.11-.14-.19-.29-.23-.46-.03-.18-.04-.44-.04-.77v-1.96c0-.22.05-.4.15-.52.09-.13.28-.19.56-.19h.48c.59,0,1.13-.18,1.6-.54.47-.38.71-.84.71-1.42,0-.64-.22-1.14-.65-1.5-.43-.38-.96-.56-1.58-.56h-3.25v11.85c0,.28-.06.47-.19.56-.11.1-.28.15-.5.15h-2.42c-.21,0-.38-.05-.5-.15-.13-.09-.19-.28-.19-.56v-14.56c0-.22.04-.4.13-.52.09-.13.28-.19.56-.19h6.13c.89,0,1.63.06,2.21.19.58.11,1.08.29,1.5.52.42.22.79.51,1.13.85.46.43.8.98,1.04,1.65.25.67.38,1.39.38,2.17,0,.85-.18,1.6-.54,2.27-.35.67-.79,1.22-1.31,1.67-.52.43-1.02.73-1.52.9l3.42,5Z"/>
  <path class="cls-1" d="M241.02,159.45c.28,0,.46.06.56.19.09.13.15.3.15.52v2.02c0,.21-.05.39-.15.52-.1.13-.29.19-.56.19h-3.73v11.85c0,.28-.06.47-.19.56-.11.1-.29.15-.52.15h-2.4c-.21,0-.39-.05-.52-.15-.13-.09-.19-.28-.19-.56v-11.85h-3.75c-.28,0-.47-.06-.56-.19-.1-.14-.15-.31-.15-.52v-2.02c0-.22.05-.4.15-.52.09-.13.28-.19.56-.19h11.29Z"/>
  <path class="cls-1" d="M256.44,159.45c.22,0,.4.05.52.15.13.1.19.29.19.56v14.58c0,.21-.05.39-.15.52-.1.13-.29.19-.56.19h-2.23c-.31,0-.52-.07-.65-.23-.13-.15-.27-.35-.44-.6l-5.15-8.33v8.46c0,.28-.06.47-.19.56-.13.1-.3.15-.52.15h-2.42c-.21,0-.39-.05-.52-.15-.13-.09-.19-.28-.19-.56v-14.58c0-.22.05-.4.15-.52.09-.13.28-.19.56-.19h2.29c.3,0,.52.08.65.23.14.16.28.35.44.6l5.17,8.31v-8.44c0-.28.06-.46.19-.56.13-.09.3-.15.52-.15h2.33Z"/>
  <path class="cls-1" d="M272.33,172.06c.28,0,.46.06.56.19.09.11.15.28.15.5v2c0,.21-.05.39-.15.52-.1.13-.29.19-.56.19h-10.9c-.28,0-.47-.06-.56-.19-.1-.14-.15-.31-.15-.52v-14.58c0-.22.05-.4.15-.52.09-.13.28-.19.56-.19h10.48c.28,0,.46.06.56.19.09.13.15.3.15.52v2.02c0,.21-.05.39-.15.52-.1.13-.29.19-.56.19h-7.33v2.65h6.52c.26,0,.44.06.54.19.09.11.15.29.15.52v1.9c0,.21-.05.39-.15.52-.1.13-.28.19-.54.19h-6.52v3.21h7.75Z"/>
  <path class="cls-1" d="M289.08,174.68c.13.16.15.32.08.5-.07.18-.22.27-.44.27h-2.88c-.29,0-.52-.05-.69-.17-.17-.11-.34-.3-.52-.56l-2.63-3.92c-.11-.14-.19-.29-.23-.46-.03-.18-.04-.44-.04-.77v-1.96c0-.22.05-.4.15-.52.09-.13.28-.19.56-.19h.48c.59,0,1.13-.18,1.6-.54.47-.38.71-.84.71-1.42,0-.64-.22-1.14-.65-1.5-.43-.38-.96-.56-1.58-.56h-3.25v11.85c0,.28-.06.47-.19.56-.11.1-.28.15-.5.15h-2.42c-.21,0-.38-.05-.5-.15-.13-.09-.19-.28-.19-.56v-14.56c0-.22.04-.4.13-.52.09-.13.28-.19.56-.19h6.13c.89,0,1.63.06,2.21.19.58.11,1.08.29,1.5.52.42.22.79.51,1.13.85.46.43.8.98,1.04,1.65.25.67.38,1.39.38,2.17,0,.85-.18,1.6-.54,2.27-.35.67-.79,1.22-1.31,1.67-.52.43-1.02.73-1.52.9l3.42,5Z"/>
  <path class="cls-1" d="M299.7,166.16c.44.14.92.3,1.42.48.5.18.96.43,1.4.75.44.32.8.75,1.08,1.29.29.53.44,1.2.44,2.02,0,1.16-.29,2.11-.85,2.88-.56.75-1.32,1.31-2.29,1.69-.97.38-2.08.56-3.33.56-.75,0-1.52-.11-2.29-.33-.77-.22-1.47-.55-2.1-.98-.64-.43-1.16-.96-1.54-1.6-.39-.65-.58-1.4-.58-2.25,0-.28.05-.46.15-.54.09-.09.28-.15.54-.15h2.38c.26,0,.46.04.6.13.15.07.24.26.27.56.01.17.05.33.1.5.07.16.19.32.35.5.23.29.57.5,1.02.63.44.11.9.17,1.35.17.67,0,1.23-.1,1.69-.31s.69-.65.69-1.33c0-.46-.21-.79-.63-1s-.95-.38-1.58-.52c-.64-.14-1.31-.31-2.02-.52-.81-.26-1.57-.57-2.29-.92-.72-.36-1.31-.84-1.75-1.46-.45-.63-.67-1.44-.67-2.46s.28-1.94.83-2.65c.57-.71,1.3-1.24,2.21-1.6.9-.36,1.86-.55,2.88-.58.78,0,1.54.09,2.29.27.76.17,1.46.45,2.08.83.63.38,1.13.85,1.5,1.44.39.57.58,1.26.58,2.06,0,.29-.05.48-.15.56-.1.08-.29.13-.56.13h-2.38c-.24,0-.39-.07-.46-.21-.07-.14-.14-.28-.21-.44-.04-.14-.1-.26-.19-.35-.07-.11-.18-.24-.31-.4-.24-.22-.55-.38-.94-.48-.39-.11-.77-.17-1.13-.17-.27,0-.57.04-.92.13-.33.08-.63.23-.88.44-.24.2-.35.48-.35.85s.19.7.56.96c.38.25.82.47,1.33.67.53.18,1.04.33,1.54.46.5.11.86.22,1.1.31Z"/>
  <path class="cls-1" d="M108.93,196.87c.07.11.08.23.04.35-.04.11-.14.17-.29.17h-1.92c-.2,0-.35-.03-.48-.1-.11-.08-.22-.21-.33-.38l-1.77-2.65c-.07-.09-.12-.2-.15-.31-.02-.11-.02-.28-.02-.5v-1.31c0-.15.03-.27.08-.35.07-.08.19-.13.38-.13h.33c.4,0,.76-.13,1.06-.38.32-.25.48-.56.48-.94,0-.43-.15-.77-.44-1.02-.28-.25-.64-.38-1.06-.38h-2.17v7.96c0,.2-.04.33-.13.4-.08.06-.2.08-.35.08h-1.6c-.14,0-.25-.03-.33-.08-.08-.07-.13-.2-.13-.4v-9.77c0-.15.03-.26.08-.33.07-.08.19-.13.38-.13h4.1c.59,0,1.09.04,1.48.13.4.07.74.18,1.02.33.28.16.53.35.75.58.3.29.53.66.69,1.1.17.45.25.93.25,1.46,0,.56-.12,1.06-.35,1.52-.24.45-.53.81-.88,1.1-.35.29-.69.49-1.02.6l2.29,3.35Z"/>
  <path class="cls-1" d="M118.77,195.1c.19,0,.32.04.38.13.07.08.1.2.1.35v1.33c0,.14-.04.26-.1.35-.06.08-.18.13-.38.13h-7.29c-.2,0-.33-.04-.4-.13-.06-.09-.08-.21-.08-.35v-9.79c0-.14.03-.25.08-.33.07-.08.2-.13.4-.13h7.02c.18,0,.3.04.38.13.07.08.1.2.1.33v1.35c0,.16-.04.27-.1.35-.07.08-.2.13-.38.13h-4.92v1.79h4.38c.18,0,.3.04.35.13.07.07.1.18.1.33v1.27c0,.14-.04.26-.1.35-.06.08-.18.13-.35.13h-4.38v2.15h5.19Z"/>
  <path class="cls-1" d="M130.46,196.93c.04.1.05.2.02.31-.02.1-.11.15-.29.15h-1.71c-.18,0-.31-.03-.4-.08-.08-.07-.16-.2-.23-.4l-.46-1.29h-4l-.46,1.29c-.07.2-.15.33-.23.4-.07.06-.2.08-.4.08h-1.71c-.17,0-.27-.05-.29-.15-.03-.11-.02-.21.02-.31l3.63-9.77c.05-.17.13-.29.23-.38.11-.08.26-.13.44-.13h1.56c.18,0,.32.04.42.13.09.08.18.21.25.38l3.6,9.77ZM125.39,189.72l-1.21,3.6h2.44l-1.23-3.6Z"/>
  <path class="cls-1" d="M139.16,195.1c.19,0,.32.04.38.13.07.08.1.2.1.35v1.33c0,.14-.04.26-.1.35-.06.08-.18.13-.38.13h-6.77c-.2,0-.33-.04-.4-.13-.06-.09-.08-.21-.08-.35v-9.79c0-.18.04-.3.13-.35.08-.07.2-.1.35-.1h1.6c.15,0,.27.04.35.1.08.06.13.18.13.35v7.98h4.69Z"/>
  <path class="cls-1" d="M153.6,195.1c.19,0,.32.04.38.13.07.08.1.2.1.35v1.33c0,.14-.04.26-.1.35-.06.08-.18.13-.38.13h-7.29c-.2,0-.33-.04-.4-.13-.06-.09-.08-.21-.08-.35v-9.79c0-.14.03-.25.08-.33.07-.08.2-.13.4-.13h7.02c.18,0,.3.04.38.13.07.08.1.2.1.33v1.35c0,.16-.04.27-.1.35-.07.08-.2.13-.38.13h-4.92v1.79h4.38c.18,0,.3.04.35.13.07.07.1.18.1.33v1.27c0,.14-.04.26-.1.35-.06.08-.18.13-.35.13h-4.38v2.15h5.19Z"/>
  <path class="cls-1" d="M161.12,191.16c.29.08.6.19.94.31s.65.3.94.52c.3.21.55.49.73.85.19.35.29.8.29,1.35,0,.78-.19,1.43-.56,1.94-.38.5-.89.88-1.54,1.13-.66.25-1.4.38-2.23.38-.52,0-1.03-.08-1.54-.23-.52-.14-.99-.35-1.42-.65-.43-.29-.78-.65-1.04-1.08-.27-.44-.4-.94-.4-1.5,0-.19.03-.32.1-.38.07-.05.19-.08.38-.08h1.58c.18,0,.32.03.42.08.09.04.15.17.17.38.01.11.04.22.08.33.04.1.11.21.23.33.17.2.4.33.69.42.3.08.61.13.92.13.44,0,.82-.07,1.13-.21.3-.15.46-.46.46-.92,0-.29-.14-.51-.42-.65-.28-.15-.64-.27-1.06-.35-.43-.09-.89-.21-1.35-.35-.54-.18-1.06-.39-1.54-.63-.49-.23-.89-.56-1.19-.98-.29-.42-.44-.96-.44-1.65s.19-1.3.56-1.77c.38-.47.86-.82,1.48-1.06.61-.25,1.25-.39,1.92-.42.53,0,1.05.06,1.56.19.51.11.98.3,1.4.56.42.25.75.57,1,.96.26.39.4.85.4,1.4,0,.2-.04.32-.1.38-.07.06-.2.08-.38.08h-1.6c-.16,0-.26-.05-.31-.15-.04-.09-.08-.19-.13-.29-.03-.09-.07-.18-.13-.25-.04-.07-.11-.15-.21-.25-.16-.15-.36-.26-.63-.33-.27-.07-.52-.1-.77-.1-.17,0-.37.03-.6.08-.22.06-.42.16-.58.29-.17.13-.25.31-.25.56s.13.47.38.65c.25.17.55.31.9.44.36.13.71.23,1.04.31s.58.16.75.23Z"/>
  <path class="cls-1" d="M173.17,186.66c.19,0,.32.04.38.13.07.08.1.2.1.33v1.35c0,.16-.04.27-.1.35-.06.08-.18.13-.38.13h-2.48v7.96c0,.2-.04.33-.13.4-.08.06-.2.08-.35.08h-1.63c-.14,0-.25-.03-.33-.08-.08-.07-.13-.2-.13-.4v-7.96h-2.52c-.18,0-.31-.04-.38-.13-.07-.08-.1-.2-.1-.35v-1.35c0-.14.03-.25.1-.33.07-.08.19-.13.38-.13h7.56Z"/>
  <path class="cls-1" d="M184.52,196.93c.04.1.05.2.02.31-.02.1-.11.15-.29.15h-1.71c-.18,0-.31-.03-.4-.08-.08-.07-.16-.2-.23-.4l-.46-1.29h-4l-.46,1.29c-.07.2-.15.33-.23.4-.07.06-.2.08-.4.08h-1.71c-.17,0-.27-.05-.29-.15-.03-.11-.02-.21.02-.31l3.63-9.77c.05-.17.13-.29.23-.38.11-.08.26-.13.44-.13h1.56c.18,0,.32.04.42.13.09.08.18.21.25.38l3.6,9.77ZM179.45,189.72l-1.21,3.6h2.44l-1.23-3.6Z"/>
  <path class="cls-1" d="M193.22,186.66c.19,0,.32.04.38.13.07.08.1.2.1.33v1.35c0,.16-.04.27-.1.35-.06.08-.18.13-.38.13h-2.48v7.96c0,.2-.04.33-.13.4-.08.06-.2.08-.35.08h-1.63c-.14,0-.25-.03-.33-.08-.08-.07-.13-.2-.13-.4v-7.96h-2.52c-.18,0-.31-.04-.38-.13-.07-.08-.1-.2-.1-.35v-1.35c0-.14.03-.25.1-.33.07-.08.19-.13.38-.13h7.56Z"/>
  <path class="cls-1" d="M203.11,195.1c.19,0,.32.04.38.13.07.08.1.2.1.35v1.33c0,.14-.04.26-.1.35-.06.08-.18.13-.38.13h-7.29c-.2,0-.33-.04-.4-.13-.06-.09-.08-.21-.08-.35v-9.79c0-.14.03-.25.08-.33.07-.08.2-.13.4-.13h7.02c.18,0,.3.04.38.13.07.08.1.2.1.33v1.35c0,.16-.04.27-.1.35-.07.08-.2.13-.38.13h-4.92v1.79h4.38c.18,0,.3.04.35.13.07.07.1.18.1.33v1.27c0,.14-.04.26-.1.35-.06.08-.18.13-.35.13h-4.38v2.15h5.19Z"/>
</svg>