<?xml version="1.0" encoding="UTF-8"?>
<svg id="Layer_1" data-name="Layer 1" xmlns="http://www.w3.org/2000/svg" width="304.04" height="188.63" xmlns:xlink="http://www.w3.org/1999/xlink" viewBox="0 0 304.04 188.63">
  <defs>
    <style>
      .cls-1 {
        fill: none;
      }

      .cls-2 {
        clip-path: url(#clippath-1);
      }

      .cls-3 {
        fill: url(#linear-gradient);
      }

      .cls-4 {
        clip-path: url(#clippath);
      }
    </style>
    <clipPath id="clippath">
      <rect class="cls-1" x="51.65" y="0" width="200" height="138"/>
    </clipPath>
    <clipPath id="clippath-1">
      <path class="cls-1" d="M234.62,58.45l16.99,23.23v10.85l-16.99-18.7-47.18,18.7v-10.85l47.18-23.23ZM187.44,96.57v10.85l47.18-12.46,16.99,12.46v-10.85l-16.99-17.01-47.18,17.01ZM187.44,111.45v10.85l47.18-6.23,16.99,6.23v-10.85l-16.99-10.78-47.18,10.78ZM187.44,126.33v10.85h64.18v-10.85l-16.99-4.55-47.18,4.55ZM234.62,37.33l-47.18,29.47v10.85l47.18-24.92,16.99,24.92v-10.85l-16.99-29.47ZM51.69,90.33v9.16l18.41-15.79,36.06,15.79v-9.16l-36.06-19.62-18.41,19.62ZM51.69,102.89v9.16l18.41-10.52,36.06,10.52v-9.16l-36.06-14.35-18.41,14.35ZM51.69,115.46v9.16l18.41-5.26,36.06,5.26v-9.16l-36.06-9.09-18.41,9.09ZM70.2,124.25h-.04s-.07,0-.07,0v.02l-18.4,3.82v9.16h54.46v-9.16l-35.94-3.82v-.02h-.01ZM148.83,137.7h8.29V5.52L148.83,0v137.7ZM162.32,137.81h8.28V14.51l-8.28-5.52v128.82ZM175.8,137.81h8.29V23.5l-8.29-5.52v119.83ZM135.76,137.7h8.29V0l-8.29,5.52v132.18ZM122.28,137.81h8.29V8.99l-8.29,5.52v123.3ZM108.79,137.81h8.28V17.97l-8.28,5.52v114.32Z"/>
    </clipPath>
    <linearGradient id="linear-gradient" x1="299.13" y1="260.65" x2="281.47" y2="52.17" gradientTransform="translate(-62.3 184.18) scale(.74 -.74)" gradientUnits="userSpaceOnUse">
      <stop offset="0" stop-color="#ff914d"/>
      <stop offset=".11" stop-color="#ff914d"/>
      <stop offset=".12" stop-color="#ff914d"/>
      <stop offset=".19" stop-color="#ff914d"/>
      <stop offset=".2" stop-color="#ff914d"/>
      <stop offset=".2" stop-color="#fe914d"/>
      <stop offset=".2" stop-color="#fe904d"/>
      <stop offset=".21" stop-color="#fd904c"/>
      <stop offset=".21" stop-color="#fb8f4c"/>
      <stop offset=".21" stop-color="#fa8e4c"/>
      <stop offset=".22" stop-color="#f98d4b"/>
      <stop offset=".22" stop-color="#f88d4b"/>
      <stop offset=".23" stop-color="#f68c4a"/>
      <stop offset=".23" stop-color="#f58b4a"/>
      <stop offset=".23" stop-color="#f48b4a"/>
      <stop offset=".24" stop-color="#f38a49"/>
      <stop offset=".24" stop-color="#f18949"/>
      <stop offset=".25" stop-color="#f08949"/>
      <stop offset=".25" stop-color="#ef8848"/>
      <stop offset=".25" stop-color="#ee8748"/>
      <stop offset=".26" stop-color="#ec8647"/>
      <stop offset=".26" stop-color="#eb8647"/>
      <stop offset=".27" stop-color="#ea8547"/>
      <stop offset=".27" stop-color="#e98446"/>
      <stop offset=".27" stop-color="#e78446"/>
      <stop offset=".28" stop-color="#e68345"/>
      <stop offset=".28" stop-color="#e58245"/>
      <stop offset=".29" stop-color="#e48145"/>
      <stop offset=".29" stop-color="#e28144"/>
      <stop offset=".29" stop-color="#e18044"/>
      <stop offset=".3" stop-color="#e07f44"/>
      <stop offset=".3" stop-color="#df7f43"/>
      <stop offset=".3" stop-color="#dd7e43"/>
      <stop offset=".31" stop-color="#dc7d42"/>
      <stop offset=".31" stop-color="#db7c42"/>
      <stop offset=".32" stop-color="#da7c42"/>
      <stop offset=".32" stop-color="#d87b41"/>
      <stop offset=".32" stop-color="#d77a41"/>
      <stop offset=".33" stop-color="#d67a41"/>
      <stop offset=".33" stop-color="#d57940"/>
      <stop offset=".34" stop-color="#d37840"/>
      <stop offset=".34" stop-color="#d2773f"/>
      <stop offset=".34" stop-color="#d1773f"/>
      <stop offset=".35" stop-color="#d0763f"/>
      <stop offset=".35" stop-color="#ce753e"/>
      <stop offset=".36" stop-color="#cd753e"/>
      <stop offset=".36" stop-color="#cc743e"/>
      <stop offset=".36" stop-color="#cb733d"/>
      <stop offset=".37" stop-color="#c9733d"/>
      <stop offset=".37" stop-color="#c8723c"/>
      <stop offset=".38" stop-color="#c7713c"/>
      <stop offset=".38" stop-color="#c6703c"/>
      <stop offset=".38" stop-color="#c4703b"/>
      <stop offset=".39" stop-color="#c36f3b"/>
      <stop offset=".39" stop-color="#c26e3b"/>
      <stop offset=".39" stop-color="#c16e3a"/>
      <stop offset=".4" stop-color="#bf6d3a"/>
      <stop offset=".4" stop-color="#be6c39"/>
      <stop offset=".41" stop-color="#bd6b39"/>
      <stop offset=".41" stop-color="#bc6b39"/>
      <stop offset=".41" stop-color="#ba6a38"/>
      <stop offset=".42" stop-color="#b96938"/>
      <stop offset=".42" stop-color="#b86938"/>
      <stop offset=".43" stop-color="#b76837"/>
      <stop offset=".43" stop-color="#b56737"/>
      <stop offset=".43" stop-color="#b46636"/>
      <stop offset=".44" stop-color="#b36636"/>
      <stop offset=".44" stop-color="#b26536"/>
      <stop offset=".45" stop-color="#b06435"/>
      <stop offset=".45" stop-color="#af6435"/>
      <stop offset=".45" stop-color="#ae6335"/>
      <stop offset=".46" stop-color="#ad6234"/>
      <stop offset=".46" stop-color="#ab6134"/>
      <stop offset=".46" stop-color="#aa6133"/>
      <stop offset=".47" stop-color="#a96033"/>
      <stop offset=".47" stop-color="#a85f33"/>
      <stop offset=".48" stop-color="#a65f32"/>
      <stop offset=".48" stop-color="#a55e32"/>
      <stop offset=".48" stop-color="#a45d32"/>
      <stop offset=".49" stop-color="#a35d31"/>
      <stop offset=".49" stop-color="#a15c31"/>
      <stop offset=".5" stop-color="#a05b30"/>
      <stop offset=".5" stop-color="#9f5a30"/>
      <stop offset=".5" stop-color="#9e5a30"/>
      <stop offset=".51" stop-color="#9c592f"/>
      <stop offset=".51" stop-color="#9b582f"/>
      <stop offset=".52" stop-color="#9a582e"/>
      <stop offset=".52" stop-color="#99572e"/>
      <stop offset=".52" stop-color="#97562e"/>
      <stop offset=".53" stop-color="#96552d"/>
      <stop offset=".53" stop-color="#95552d"/>
      <stop offset=".54" stop-color="#94542d"/>
      <stop offset=".54" stop-color="#92532c"/>
      <stop offset=".54" stop-color="#91532c"/>
      <stop offset=".55" stop-color="#90522b"/>
      <stop offset=".55" stop-color="#8f512b"/>
      <stop offset=".55" stop-color="#8d502b"/>
      <stop offset=".56" stop-color="#8c502a"/>
      <stop offset=".56" stop-color="#8b4f2a"/>
      <stop offset=".57" stop-color="#8a4e2a"/>
      <stop offset=".57" stop-color="#884e29"/>
      <stop offset=".57" stop-color="#874d29"/>
      <stop offset=".58" stop-color="#864c28"/>
      <stop offset=".58" stop-color="#854b28"/>
      <stop offset=".59" stop-color="#834b28"/>
      <stop offset=".59" stop-color="#824a27"/>
      <stop offset=".59" stop-color="#814927"/>
      <stop offset=".6" stop-color="#804927"/>
      <stop offset=".6" stop-color="#7e4826"/>
      <stop offset=".61" stop-color="#7d4726"/>
      <stop offset=".61" stop-color="#7c4625"/>
      <stop offset=".61" stop-color="#7b4625"/>
      <stop offset=".62" stop-color="#794525"/>
      <stop offset=".62" stop-color="#784424"/>
      <stop offset=".62" stop-color="#774424"/>
      <stop offset=".63" stop-color="#764324"/>
      <stop offset=".63" stop-color="#744223"/>
      <stop offset=".64" stop-color="#734223"/>
      <stop offset=".64" stop-color="#724122"/>
      <stop offset=".64" stop-color="#714022"/>
      <stop offset=".65" stop-color="#6f3f22"/>
      <stop offset=".65" stop-color="#6e3f21"/>
      <stop offset=".66" stop-color="#6d3e21"/>
      <stop offset=".66" stop-color="#6c3d21"/>
      <stop offset=".66" stop-color="#6a3d20"/>
      <stop offset=".67" stop-color="#693c20"/>
      <stop offset=".67" stop-color="#683b1f"/>
      <stop offset=".68" stop-color="#673a1f"/>
      <stop offset=".68" stop-color="#663a1f"/>
      <stop offset=".68" stop-color="#64391e"/>
      <stop offset=".69" stop-color="#63381e"/>
      <stop offset=".69" stop-color="#62381e"/>
      <stop offset=".7" stop-color="#61371d"/>
      <stop offset=".7" stop-color="#5f361d"/>
      <stop offset=".7" stop-color="#5e351c"/>
      <stop offset=".71" stop-color="#5d351c"/>
      <stop offset=".71" stop-color="#5c341c"/>
      <stop offset=".71" stop-color="#5a331b"/>
      <stop offset=".72" stop-color="#59331b"/>
      <stop offset=".72" stop-color="#58321b"/>
      <stop offset=".73" stop-color="#57311a"/>
      <stop offset=".73" stop-color="#55301a"/>
      <stop offset=".73" stop-color="#543019"/>
      <stop offset=".74" stop-color="#532f19"/>
      <stop offset=".74" stop-color="#522e19"/>
      <stop offset=".75" stop-color="#502e18"/>
      <stop offset=".75" stop-color="#4f2d18"/>
      <stop offset=".75" stop-color="#4e2c17"/>
      <stop offset=".76" stop-color="#4d2c17"/>
      <stop offset=".76" stop-color="#4b2b17"/>
      <stop offset=".77" stop-color="#4a2a16"/>
      <stop offset=".77" stop-color="#492916"/>
      <stop offset=".77" stop-color="#482916"/>
      <stop offset=".78" stop-color="#462815"/>
      <stop offset=".78" stop-color="#452715"/>
      <stop offset=".79" stop-color="#442714"/>
      <stop offset=".79" stop-color="#432614"/>
      <stop offset=".79" stop-color="#412514"/>
      <stop offset=".8" stop-color="#402413"/>
      <stop offset=".8" stop-color="#3f2413"/>
      <stop offset=".8" stop-color="#3e2313"/>
      <stop offset=".81" stop-color="#3c2212"/>
      <stop offset=".81" stop-color="#3b2212"/>
      <stop offset=".82" stop-color="#3a2111"/>
      <stop offset=".82" stop-color="#392011"/>
      <stop offset=".82" stop-color="#371f11"/>
      <stop offset=".83" stop-color="#361f10"/>
      <stop offset=".83" stop-color="#351e10"/>
      <stop offset=".84" stop-color="#341d10"/>
      <stop offset=".84" stop-color="#321d0f"/>
      <stop offset=".84" stop-color="#311c0f"/>
      <stop offset=".85" stop-color="#301b0e"/>
      <stop offset=".85" stop-color="#2f1a0e"/>
      <stop offset=".86" stop-color="#2d1a0e"/>
      <stop offset=".86" stop-color="#2c190d"/>
      <stop offset=".86" stop-color="#2b180d"/>
      <stop offset=".87" stop-color="#2a180d"/>
      <stop offset=".87" stop-color="#28170c"/>
      <stop offset=".88" stop-color="#27160c"/>
      <stop offset=".88" stop-color="#26160b"/>
      <stop offset=".88" stop-color="#25150b"/>
      <stop offset=".89" stop-color="#23140b"/>
      <stop offset=".89" stop-color="#22130a"/>
      <stop offset=".89" stop-color="#21130a"/>
      <stop offset=".9" stop-color="#20120a"/>
      <stop offset=".9" stop-color="#1e1109"/>
      <stop offset=".91" stop-color="#1d1109"/>
      <stop offset=".91" stop-color="#1c1008"/>
      <stop offset=".91" stop-color="#1b0f08"/>
      <stop offset=".92" stop-color="#190e08"/>
      <stop offset=".92" stop-color="#180e07"/>
      <stop offset=".93" stop-color="#170d07"/>
      <stop offset=".93" stop-color="#160c07"/>
      <stop offset=".93" stop-color="#140c06"/>
      <stop offset=".94" stop-color="#130b06"/>
      <stop offset=".94" stop-color="#120a05"/>
      <stop offset=".95" stop-color="#110905"/>
      <stop offset=".95" stop-color="#0f0905"/>
      <stop offset=".95" stop-color="#0e0804"/>
      <stop offset=".96" stop-color="#0d0704"/>
      <stop offset=".96" stop-color="#0c0703"/>
      <stop offset=".96" stop-color="#0a0603"/>
      <stop offset=".97" stop-color="#090503"/>
      <stop offset=".97" stop-color="#080402"/>
      <stop offset=".98" stop-color="#070402"/>
      <stop offset=".98" stop-color="#050302"/>
      <stop offset=".98" stop-color="#040201"/>
      <stop offset=".99" stop-color="#030201"/>
      <stop offset=".99" stop-color="#020100"/>
      <stop offset="1" stop-color="#010000"/>
      <stop offset="1" stop-color="#000"/>
    </linearGradient>
  </defs>
  <g class="cls-4">
    <g class="cls-2">
      <path class="cls-3" d="M51.69,0v137.81h199.93V0H51.69Z"/>
    </g>
  </g>
  <path d="M6.19,154.65c2.08,0,3.67.52,4.75,1.56,1.08,1.03,1.63,2.39,1.63,4.08s-.55,3.04-1.65,4.06c-1.1,1.03-2.68,1.54-4.75,1.54h-2.33v4.04c0,.28-.06.47-.19.56-.13.1-.3.15-.52.15H.71c-.21,0-.39-.05-.52-.15-.13-.09-.19-.28-.19-.56v-14.58c0-.22.05-.4.15-.52.09-.13.28-.19.56-.19h5.48ZM6.17,162.62c.94,0,1.63-.22,2.06-.67.43-.46.65-.99.65-1.6s-.22-1.16-.65-1.6c-.43-.44-1.12-.67-2.06-.67h-2.33v4.54h2.33Z"/>
  <path d="M28.37,169.87c.13.16.15.32.08.5-.07.18-.22.27-.44.27h-2.88c-.29,0-.52-.05-.69-.17-.17-.11-.34-.3-.52-.56l-2.63-3.92c-.11-.14-.19-.29-.23-.46-.03-.18-.04-.44-.04-.77v-1.96c0-.22.05-.4.15-.52.09-.13.28-.19.56-.19h.48c.59,0,1.13-.18,1.6-.54.47-.38.71-.84.71-1.42,0-.64-.22-1.14-.65-1.5-.43-.38-.96-.56-1.58-.56h-3.25v11.85c0,.28-.06.47-.19.56-.11.1-.28.15-.5.15h-2.42c-.21,0-.38-.05-.5-.15-.13-.09-.19-.28-.19-.56v-14.56c0-.22.04-.4.13-.52.09-.13.28-.19.56-.19h6.13c.89,0,1.63.06,2.21.19.58.11,1.08.29,1.5.52.42.22.79.51,1.13.85.46.43.8.98,1.04,1.65.25.67.38,1.39.38,2.17,0,.85-.18,1.6-.54,2.27-.35.67-.79,1.22-1.31,1.67-.52.43-1.02.73-1.52.9l3.42,5Z"/>
  <path d="M44.04,165.52c0,.96-.21,1.79-.63,2.48-.41.7-.93,1.27-1.58,1.71-.64.45-1.34.77-2.1.98-.77.22-1.51.33-2.23.33s-1.48-.11-2.23-.33c-.75-.21-1.45-.53-2.1-.98-.66-.44-1.18-1.01-1.58-1.71-.39-.69-.58-1.52-.58-2.48v-5.75c0-.96.19-1.78.58-2.48.4-.69.93-1.26,1.58-1.71.65-.44,1.35-.77,2.1-.98s1.49-.31,2.23-.31,1.46.1,2.23.31c.76.21,1.46.54,2.1.98.65.45,1.18,1.02,1.58,1.71.42.7.63,1.52.63,2.48v5.75ZM40.21,160.12c0-.78-.25-1.38-.75-1.81-.5-.43-1.16-.65-1.96-.65s-1.45.22-1.96.65c-.5.43-.75,1.04-.75,1.81v5.04c0,.78.25,1.39.75,1.81.51.43,1.17.65,1.96.65s1.46-.21,1.96-.65c.5-.43.75-1.03.75-1.81v-5.04Z"/>
  <path d="M53.33,154.65c2.08,0,3.67.52,4.75,1.56,1.08,1.03,1.63,2.39,1.63,4.08s-.55,3.04-1.65,4.06c-1.1,1.03-2.68,1.54-4.75,1.54h-2.33v4.04c0,.28-.06.47-.19.56-.13.1-.3.15-.52.15h-2.42c-.21,0-.39-.05-.52-.15-.13-.09-.19-.28-.19-.56v-14.58c0-.22.05-.4.15-.52.09-.13.28-.19.56-.19h5.48ZM53.31,162.62c.94,0,1.63-.22,2.06-.67.43-.46.65-.99.65-1.6s-.22-1.16-.65-1.6c-.43-.44-1.12-.67-2.06-.67h-2.33v4.54h2.33Z"/>
  <path d="M74.01,167.25c.28,0,.46.06.56.19.09.11.15.28.15.5v2c0,.21-.05.39-.15.52-.1.13-.29.19-.56.19h-10.9c-.28,0-.47-.06-.56-.19-.1-.14-.15-.31-.15-.52v-14.58c0-.22.05-.4.15-.52.09-.13.28-.19.56-.19h10.48c.28,0,.46.06.56.19.09.13.15.3.15.52v2.02c0,.21-.05.39-.15.52-.1.13-.29.19-.56.19h-7.33v2.65h6.52c.26,0,.44.06.54.19.09.11.15.29.15.52v1.9c0,.21-.05.39-.15.52-.1.13-.28.19-.54.19h-6.52v3.21h7.75Z"/>
  <path d="M90.76,169.87c.13.16.15.32.08.5-.07.18-.22.27-.44.27h-2.88c-.29,0-.52-.05-.69-.17-.17-.11-.34-.3-.52-.56l-2.63-3.92c-.11-.14-.19-.29-.23-.46-.03-.18-.04-.44-.04-.77v-1.96c0-.22.05-.4.15-.52.09-.13.28-.19.56-.19h.48c.59,0,1.13-.18,1.6-.54.47-.38.71-.84.71-1.42,0-.64-.22-1.14-.65-1.5-.43-.38-.96-.56-1.58-.56h-3.25v11.85c0,.28-.06.47-.19.56-.11.1-.28.15-.5.15h-2.42c-.21,0-.38-.05-.5-.15-.13-.09-.19-.28-.19-.56v-14.56c0-.22.04-.4.13-.52.09-.13.28-.19.56-.19h6.13c.89,0,1.63.06,2.21.19.58.11,1.08.29,1.5.52.42.22.79.51,1.13.85.46.43.8.98,1.04,1.65.25.67.38,1.39.38,2.17,0,.85-.18,1.6-.54,2.27-.35.67-.79,1.22-1.31,1.67-.52.43-1.02.73-1.52.9l3.42,5Z"/>
  <path d="M104.68,154.65c.28,0,.46.06.56.19.09.13.15.3.15.52v2.02c0,.21-.05.39-.15.52-.1.13-.29.19-.56.19h-3.73v11.85c0,.28-.06.47-.19.56-.11.1-.29.15-.52.15h-2.4c-.21,0-.39-.05-.52-.15-.13-.09-.19-.28-.19-.56v-11.85h-3.75c-.28,0-.47-.06-.56-.19-.1-.14-.15-.31-.15-.52v-2.02c0-.22.05-.4.15-.52.09-.13.28-.19.56-.19h11.29Z"/>
  <path d="M119.99,154.65c.22,0,.35.08.4.25.05.16.05.3,0,.44l-5.02,9.31v5.29c0,.28-.06.47-.19.56-.11.1-.29.15-.52.15h-2.42c-.24,0-.42-.05-.54-.15-.11-.09-.17-.28-.17-.56v-5.29l-5.21-9.31c-.06-.14-.06-.28-.02-.44.05-.17.19-.25.42-.25h2.79c.28,0,.49.04.65.13.17.08.33.29.5.6l2.83,5.23,2.75-5.23c.17-.32.32-.52.48-.6.15-.08.36-.13.65-.13h2.63Z"/>
  <path d="M135.26,154.65c2.08,0,3.67.52,4.75,1.56,1.08,1.03,1.63,2.39,1.63,4.08s-.55,3.04-1.65,4.06c-1.1,1.03-2.68,1.54-4.75,1.54h-2.33v4.04c0,.28-.06.47-.19.56-.13.1-.3.15-.52.15h-2.42c-.21,0-.39-.05-.52-.15-.13-.09-.19-.28-.19-.56v-14.58c0-.22.05-.4.15-.52.09-.13.28-.19.56-.19h5.48ZM135.24,162.62c.94,0,1.63-.22,2.06-.67.43-.46.65-.99.65-1.6s-.22-1.16-.65-1.6c-.43-.44-1.12-.67-2.06-.67h-2.33v4.54h2.33Z"/>
  <path d="M157.45,169.87c.13.16.15.32.08.5-.07.18-.22.27-.44.27h-2.88c-.29,0-.52-.05-.69-.17-.17-.11-.34-.3-.52-.56l-2.63-3.92c-.11-.14-.19-.29-.23-.46-.03-.18-.04-.44-.04-.77v-1.96c0-.22.05-.4.15-.52.09-.13.28-.19.56-.19h.48c.59,0,1.13-.18,1.6-.54.47-.38.71-.84.71-1.42,0-.64-.22-1.14-.65-1.5-.43-.38-.96-.56-1.58-.56h-3.25v11.85c0,.28-.06.47-.19.56-.11.1-.28.15-.5.15h-2.42c-.21,0-.38-.05-.5-.15-.13-.09-.19-.28-.19-.56v-14.56c0-.22.04-.4.13-.52.09-.13.28-.19.56-.19h6.13c.89,0,1.63.06,2.21.19.58.11,1.08.29,1.5.52.42.22.79.51,1.13.85.46.43.8.98,1.04,1.65.25.67.38,1.39.38,2.17,0,.85-.18,1.6-.54,2.27-.35.67-.79,1.22-1.31,1.67-.52.43-1.02.73-1.52.9l3.42,5Z"/>
  <path d="M173.12,165.52c0,.96-.21,1.79-.63,2.48-.41.7-.93,1.27-1.58,1.71-.64.45-1.34.77-2.1.98-.77.22-1.51.33-2.23.33s-1.48-.11-2.23-.33c-.75-.21-1.45-.53-2.1-.98-.66-.44-1.18-1.01-1.58-1.71-.39-.69-.58-1.52-.58-2.48v-5.75c0-.96.19-1.78.58-2.48.4-.69.93-1.26,1.58-1.71.65-.44,1.35-.77,2.1-.98s1.49-.31,2.23-.31,1.46.1,2.23.31c.76.21,1.46.54,2.1.98.65.45,1.18,1.02,1.58,1.71.42.7.63,1.52.63,2.48v5.75ZM169.29,160.12c0-.78-.25-1.38-.75-1.81-.5-.43-1.16-.65-1.96-.65s-1.45.22-1.96.65c-.5.43-.75,1.04-.75,1.81v5.04c0,.78.25,1.39.75,1.81.51.43,1.17.65,1.96.65s1.46-.21,1.96-.65c.5-.43.75-1.03.75-1.81v-5.04Z"/>
  <path d="M188.99,154.65c2.08,0,3.67.52,4.75,1.56,1.08,1.03,1.63,2.39,1.63,4.08s-.55,3.04-1.65,4.06c-1.1,1.03-2.68,1.54-4.75,1.54h-2.33v4.04c0,.28-.06.47-.19.56-.13.1-.3.15-.52.15h-2.42c-.21,0-.39-.05-.52-.15-.13-.09-.19-.28-.19-.56v-14.58c0-.22.05-.4.15-.52.09-.13.28-.19.56-.19h5.48ZM188.97,162.62c.94,0,1.63-.22,2.06-.67.43-.46.65-.99.65-1.6s-.22-1.16-.65-1.6c-.43-.44-1.12-.67-2.06-.67h-2.33v4.54h2.33Z"/>
  <path d="M211.84,169.96c.07.16.08.31.04.46-.03.16-.18.23-.46.23h-2.54c-.27,0-.47-.05-.6-.15-.13-.09-.24-.29-.33-.58l-.69-1.92h-5.94l-.69,1.92c-.1.29-.21.49-.33.58-.13.1-.32.15-.58.15h-2.56c-.27,0-.42-.07-.46-.23-.03-.15-.02-.3.04-.46l5.4-14.56c.09-.25.22-.44.38-.56.15-.13.36-.19.63-.19h2.33c.28,0,.48.06.63.19.14.13.26.31.38.56l5.38,14.56ZM204.3,159.23l-1.81,5.35h3.65l-1.83-5.35Z"/>
  <path d="M227.1,169.87c.13.16.15.32.08.5-.07.18-.22.27-.44.27h-2.88c-.29,0-.52-.05-.69-.17-.17-.11-.34-.3-.52-.56l-2.63-3.92c-.11-.14-.19-.29-.23-.46-.03-.18-.04-.44-.04-.77v-1.96c0-.22.05-.4.15-.52.09-.13.28-.19.56-.19h.48c.59,0,1.13-.18,1.6-.54.47-.38.71-.84.71-1.42,0-.64-.22-1.14-.65-1.5-.43-.38-.96-.56-1.58-.56h-3.25v11.85c0,.28-.06.47-.19.56-.11.1-.28.15-.5.15h-2.42c-.21,0-.38-.05-.5-.15-.13-.09-.19-.28-.19-.56v-14.56c0-.22.04-.4.13-.52.09-.13.28-.19.56-.19h6.13c.89,0,1.63.06,2.21.19.58.11,1.08.29,1.5.52.42.22.79.51,1.13.85.46.43.8.98,1.04,1.65.25.67.38,1.39.38,2.17,0,.85-.18,1.6-.54,2.27-.35.67-.79,1.22-1.31,1.67-.52.43-1.02.73-1.52.9l3.42,5Z"/>
  <path d="M241.02,154.65c.28,0,.46.06.56.19.09.13.15.3.15.52v2.02c0,.21-.05.39-.15.52-.1.13-.29.19-.56.19h-3.73v11.85c0,.28-.06.47-.19.56-.11.1-.29.15-.52.15h-2.4c-.21,0-.39-.05-.52-.15-.13-.09-.19-.28-.19-.56v-11.85h-3.75c-.28,0-.47-.06-.56-.19-.1-.14-.15-.31-.15-.52v-2.02c0-.22.05-.4.15-.52.09-.13.28-.19.56-.19h11.29Z"/>
  <path d="M256.44,154.65c.22,0,.4.05.52.15.13.1.19.29.19.56v14.58c0,.21-.05.39-.15.52-.1.13-.29.19-.56.19h-2.23c-.31,0-.52-.07-.65-.23-.13-.15-.27-.35-.44-.6l-5.15-8.33v8.46c0,.28-.06.47-.19.56-.13.1-.3.15-.52.15h-2.42c-.21,0-.39-.05-.52-.15-.13-.09-.19-.28-.19-.56v-14.58c0-.22.05-.4.15-.52.09-.13.28-.19.56-.19h2.29c.3,0,.52.08.65.23.14.16.28.35.44.6l5.17,8.31v-8.44c0-.28.06-.46.19-.56.13-.09.3-.15.52-.15h2.33Z"/>
  <path d="M272.33,167.25c.28,0,.46.06.56.19.09.11.15.28.15.5v2c0,.21-.05.39-.15.52-.1.13-.29.19-.56.19h-10.9c-.28,0-.47-.06-.56-.19-.1-.14-.15-.31-.15-.52v-14.58c0-.22.05-.4.15-.52.09-.13.28-.19.56-.19h10.48c.28,0,.46.06.56.19.09.13.15.3.15.52v2.02c0,.21-.05.39-.15.52-.1.13-.29.19-.56.19h-7.33v2.65h6.52c.26,0,.44.06.54.19.09.11.15.29.15.52v1.9c0,.21-.05.39-.15.52-.1.13-.28.19-.54.19h-6.52v3.21h7.75Z"/>
  <path d="M289.08,169.87c.13.16.15.32.08.5-.07.18-.22.27-.44.27h-2.88c-.29,0-.52-.05-.69-.17-.17-.11-.34-.3-.52-.56l-2.63-3.92c-.11-.14-.19-.29-.23-.46-.03-.18-.04-.44-.04-.77v-1.96c0-.22.05-.4.15-.52.09-.13.28-.19.56-.19h.48c.59,0,1.13-.18,1.6-.54.47-.38.71-.84.71-1.42,0-.64-.22-1.14-.65-1.5-.43-.38-.96-.56-1.58-.56h-3.25v11.85c0,.28-.06.47-.19.56-.11.1-.28.15-.5.15h-2.42c-.21,0-.38-.05-.5-.15-.13-.09-.19-.28-.19-.56v-14.56c0-.22.04-.4.13-.52.09-.13.28-.19.56-.19h6.13c.89,0,1.63.06,2.21.19.58.11,1.08.29,1.5.52.42.22.79.51,1.13.85.46.43.8.98,1.04,1.65.25.67.38,1.39.38,2.17,0,.85-.18,1.6-.54,2.27-.35.67-.79,1.22-1.31,1.67-.52.43-1.02.73-1.52.9l3.42,5Z"/>
  <path d="M299.7,161.35c.44.14.92.3,1.42.48.5.18.96.43,1.4.75.44.32.8.75,1.08,1.29.29.53.44,1.2.44,2.02,0,1.16-.29,2.11-.85,2.88-.56.75-1.32,1.31-2.29,1.69-.97.38-2.08.56-3.33.56-.75,0-1.52-.11-2.29-.33-.77-.22-1.47-.55-2.1-.98-.64-.43-1.16-.96-1.54-1.6-.39-.65-.58-1.4-.58-2.25,0-.28.05-.46.15-.54.09-.09.28-.15.54-.15h2.38c.26,0,.46.04.6.13.15.07.24.26.27.56.01.17.05.33.1.5.07.16.19.32.35.5.23.29.57.5,1.02.63.44.11.9.17,1.35.17.67,0,1.23-.1,1.69-.31s.69-.65.69-1.33c0-.46-.21-.79-.63-1s-.95-.38-1.58-.52c-.64-.14-1.31-.31-2.02-.52-.81-.26-1.57-.57-2.29-.92-.72-.36-1.31-.84-1.75-1.46-.45-.63-.67-1.44-.67-2.46s.28-1.94.83-2.65c.57-.71,1.3-1.24,2.21-1.6.9-.36,1.86-.55,2.88-.58.78,0,1.54.09,2.29.27.76.17,1.46.45,2.08.83.63.38,1.13.85,1.5,1.44.39.57.58,1.26.58,2.06,0,.29-.05.48-.15.56-.1.08-.29.13-.56.13h-2.38c-.24,0-.39-.07-.46-.21-.07-.14-.14-.28-.21-.44-.04-.14-.1-.26-.19-.35-.07-.11-.18-.24-.31-.4-.24-.22-.55-.38-.94-.48-.39-.11-.77-.17-1.13-.17-.27,0-.57.04-.92.13-.33.08-.63.23-.88.44-.24.2-.35.48-.35.85s.19.7.56.96c.38.25.82.47,1.33.67.53.18,1.04.33,1.54.46.5.11.86.22,1.1.31Z"/>
  <path d="M108.93,187.86c.07.11.08.23.04.35-.04.11-.14.17-.29.17h-1.92c-.2,0-.35-.03-.48-.1-.11-.08-.22-.21-.33-.38l-1.77-2.65c-.07-.09-.12-.2-.15-.31-.02-.11-.02-.28-.02-.5v-1.31c0-.15.03-.27.08-.35.07-.08.19-.13.38-.13h.33c.4,0,.76-.13,1.06-.38.32-.25.48-.56.48-.94,0-.43-.15-.77-.44-1.02-.28-.25-.64-.38-1.06-.38h-2.17v7.96c0,.2-.04.33-.13.4-.08.06-.2.08-.35.08h-1.6c-.14,0-.25-.03-.33-.08-.08-.07-.13-.2-.13-.4v-9.77c0-.15.03-.26.08-.33.07-.08.19-.13.38-.13h4.1c.59,0,1.09.04,1.48.13.4.07.74.18,1.02.33.28.16.53.35.75.58.3.29.53.66.69,1.1.17.45.25.93.25,1.46,0,.56-.12,1.06-.35,1.52-.24.45-.53.81-.88,1.1-.35.29-.69.49-1.02.6l2.29,3.35Z"/>
  <path d="M118.77,186.09c.19,0,.32.04.38.13.07.08.1.2.1.35v1.33c0,.14-.04.26-.1.35-.06.08-.18.13-.38.13h-7.29c-.2,0-.33-.04-.4-.13-.06-.09-.08-.21-.08-.35v-9.79c0-.14.03-.25.08-.33.07-.08.2-.13.4-.13h7.02c.18,0,.3.04.38.13.07.08.1.2.1.33v1.35c0,.16-.04.27-.1.35-.07.08-.2.13-.38.13h-4.92v1.79h4.38c.18,0,.3.04.35.13.07.07.1.18.1.33v1.27c0,.14-.04.26-.1.35-.06.08-.18.13-.35.13h-4.38v2.15h5.19Z"/>
  <path d="M130.46,187.93c.04.1.05.2.02.31-.02.1-.11.15-.29.15h-1.71c-.18,0-.31-.03-.4-.08-.08-.07-.16-.2-.23-.4l-.46-1.29h-4l-.46,1.29c-.07.2-.15.33-.23.4-.07.06-.2.08-.4.08h-1.71c-.17,0-.27-.05-.29-.15-.03-.11-.02-.21.02-.31l3.63-9.77c.05-.17.13-.29.23-.38.11-.08.26-.13.44-.13h1.56c.18,0,.32.04.42.13.09.08.18.21.25.38l3.6,9.77ZM125.39,180.72l-1.21,3.6h2.44l-1.23-3.6Z"/>
  <path d="M139.16,186.09c.19,0,.32.04.38.13.07.08.1.2.1.35v1.33c0,.14-.04.26-.1.35-.06.08-.18.13-.38.13h-6.77c-.2,0-.33-.04-.4-.13-.06-.09-.08-.21-.08-.35v-9.79c0-.18.04-.3.13-.35.08-.07.2-.1.35-.1h1.6c.15,0,.27.04.35.1.08.06.13.18.13.35v7.98h4.69Z"/>
  <path d="M153.6,186.09c.19,0,.32.04.38.13.07.08.1.2.1.35v1.33c0,.14-.04.26-.1.35-.06.08-.18.13-.38.13h-7.29c-.2,0-.33-.04-.4-.13-.06-.09-.08-.21-.08-.35v-9.79c0-.14.03-.25.08-.33.07-.08.2-.13.4-.13h7.02c.18,0,.3.04.38.13.07.08.1.2.1.33v1.35c0,.16-.04.27-.1.35-.07.08-.2.13-.38.13h-4.92v1.79h4.38c.18,0,.3.04.35.13.07.07.1.18.1.33v1.27c0,.14-.04.26-.1.35-.06.08-.18.13-.35.13h-4.38v2.15h5.19Z"/>
  <path d="M161.12,182.16c.29.08.6.19.94.31s.65.3.94.52c.3.21.55.49.73.85.19.35.29.8.29,1.35,0,.78-.19,1.43-.56,1.94-.38.5-.89.88-1.54,1.13-.66.25-1.4.38-2.23.38-.52,0-1.03-.08-1.54-.23-.52-.14-.99-.35-1.42-.65-.43-.29-.78-.65-1.04-1.08-.27-.44-.4-.94-.4-1.5,0-.19.03-.32.1-.38.07-.05.19-.08.38-.08h1.58c.18,0,.32.03.42.08.09.04.15.17.17.38.01.11.04.22.08.33.04.1.11.21.23.33.17.2.4.33.69.42.3.08.61.13.92.13.44,0,.82-.07,1.13-.21.3-.15.46-.46.46-.92,0-.29-.14-.51-.42-.65-.28-.15-.64-.27-1.06-.35-.43-.09-.89-.21-1.35-.35-.54-.18-1.06-.39-1.54-.63-.49-.23-.89-.56-1.19-.98-.29-.42-.44-.96-.44-1.65s.19-1.3.56-1.77c.38-.47.86-.82,1.48-1.06.61-.25,1.25-.39,1.92-.42.53,0,1.05.06,1.56.19.51.11.98.3,1.4.56.42.25.75.57,1,.96.26.39.4.85.4,1.4,0,.2-.04.32-.1.38-.07.06-.2.08-.38.08h-1.6c-.16,0-.26-.05-.31-.15-.04-.09-.08-.19-.13-.29-.03-.09-.07-.18-.13-.25-.04-.07-.11-.15-.21-.25-.16-.15-.36-.26-.63-.33-.27-.07-.52-.1-.77-.1-.17,0-.37.03-.6.08-.22.06-.42.16-.58.29-.17.13-.25.31-.25.56s.13.47.38.65c.25.17.55.31.9.44.36.13.71.23,1.04.31s.58.16.75.23Z"/>
  <path d="M173.17,177.66c.19,0,.32.04.38.13.07.08.1.2.1.33v1.35c0,.16-.04.27-.1.35-.06.08-.18.13-.38.13h-2.48v7.96c0,.2-.04.33-.13.4-.08.06-.2.08-.35.08h-1.63c-.14,0-.25-.03-.33-.08-.08-.07-.13-.2-.13-.4v-7.96h-2.52c-.18,0-.31-.04-.38-.13-.07-.08-.1-.2-.1-.35v-1.35c0-.14.03-.25.1-.33.07-.08.19-.13.38-.13h7.56Z"/>
  <path d="M184.52,187.93c.04.1.05.2.02.31-.02.1-.11.15-.29.15h-1.71c-.18,0-.31-.03-.4-.08-.08-.07-.16-.2-.23-.4l-.46-1.29h-4l-.46,1.29c-.07.2-.15.33-.23.4-.07.06-.2.08-.4.08h-1.71c-.17,0-.27-.05-.29-.15-.03-.11-.02-.21.02-.31l3.63-9.77c.05-.17.13-.29.23-.38.11-.08.26-.13.44-.13h1.56c.18,0,.32.04.42.13.09.08.18.21.25.38l3.6,9.77ZM179.45,180.72l-1.21,3.6h2.44l-1.23-3.6Z"/>
  <path d="M193.22,177.66c.19,0,.32.04.38.13.07.08.1.2.1.33v1.35c0,.16-.04.27-.1.35-.06.08-.18.13-.38.13h-2.48v7.96c0,.2-.04.33-.13.4-.08.06-.2.08-.35.08h-1.63c-.14,0-.25-.03-.33-.08-.08-.07-.13-.2-.13-.4v-7.96h-2.52c-.18,0-.31-.04-.38-.13-.07-.08-.1-.2-.1-.35v-1.35c0-.14.03-.25.1-.33.07-.08.19-.13.38-.13h7.56Z"/>
  <path d="M203.11,186.09c.19,0,.32.04.38.13.07.08.1.2.1.35v1.33c0,.14-.04.26-.1.35-.06.08-.18.13-.38.13h-7.29c-.2,0-.33-.04-.4-.13-.06-.09-.08-.21-.08-.35v-9.79c0-.14.03-.25.08-.33.07-.08.2-.13.4-.13h7.02c.18,0,.3.04.38.13.07.08.1.2.1.33v1.35c0,.16-.04.27-.1.35-.07.08-.2.13-.38.13h-4.92v1.79h4.38c.18,0,.3.04.35.13.07.07.1.18.1.33v1.27c0,.14-.04.26-.1.35-.06.08-.18.13-.35.13h-4.38v2.15h5.19Z"/>
</svg>