<svg xmlns="http://www.w3.org/2000/svg" viewBox="0 0 64 64" fill="none" role="img" aria-label="CRLRE">
  <rect width="64" height="64" rx="32" fill="#1B2A21"/>
  <path d="M18 44V20h8.8c5.2 0 8.6 2.8 8.6 7.4 0 3.4-1.8 5.8-4.8 6.8L37 44h-5.4l-4.2-8.6H26V44H18zm8-13.2h2.8c2.2 0 3.4-1 3.4-2.8 0-1.8-1.2-2.8-3.4-2.8H26v5.6z" fill="#EDE7D8"/>
  <path d="M38.5 20H46l7.8 24H50l-1.4-4.6h-7.8L39.4 44h-4.8l7.9-24zm5.8 14.2 2.8-9.2 2.8 9.2h-5.6z" fill="#BFA06A"/>
  <path d="M12 48h40" stroke="#9A7B45" stroke-width="1.2" stroke-linecap="round" opacity="0.85"/>
</svg>
